<svg xmlns="http://www.w3.org/2000/svg" data-name="Icon set name" viewBox="0 0 512 640" x="0px" y="0px"><title>Two_people_speech_bubble_message_talk_dialog </title><path d="M43.69,464.5H159.33a5.32,5.32,0,0,0,5.32-5.31V360.47a63.08,63.08,0,0,0-38.37-58.09,5.32,5.32,0,0,0-4.18,9.78A52.46,52.46,0,0,1,154,360.47v93.4H49v-93.4a52.55,52.55,0,0,1,27.24-46,17.22,17.22,0,0,0,.19-29.95A50.72,50.72,0,0,1,67,203.24a50.7,50.7,0,1,1,55,83.53,5.32,5.32,0,0,0,4.32,9.72,61.33,61.33,0,1,0-55.17-2.77,6.62,6.62,0,0,1-.05,11.41,63.15,63.15,0,0,0-32.76,55.34v98.72A5.32,5.32,0,0,0,43.69,464.5Z"/><path d="M389.9,312.16a5.32,5.32,0,1,0-4.18-9.78,63.08,63.08,0,0,0-38.37,58.09v98.72a5.32,5.32,0,0,0,5.32,5.31H468.31a5.32,5.32,0,0,0,5.32-5.31V360.47a63.15,63.15,0,0,0-32.76-55.34,6.61,6.61,0,0,1,0-11.41,61.35,61.35,0,0,0,11.38-98.27,61.33,61.33,0,1,0-66.55,101,5.32,5.32,0,0,0,4.31-9.72,50.7,50.7,0,1,1,45.59-2.29,17.24,17.24,0,0,0,.19,30,52.55,52.55,0,0,1,27.24,46v93.4H358v-93.4A52.46,52.46,0,0,1,389.9,312.16Z"/><path d="M292.66,104v-.73a5.32,5.32,0,0,0-10.64,0V104a5.32,5.32,0,0,0,10.64,0Z"/><path d="M251.7,103.24V104a5.32,5.32,0,1,0,10.63,0v-.73a5.32,5.32,0,0,0-10.63,0Z"/><path d="M221.38,103.24V104A5.32,5.32,0,1,0,232,104v-.73a5.32,5.32,0,0,0-10.63,0Z"/><path d="M281.59,52.81a5.32,5.32,0,0,0-5.32-5.31H203a20,20,0,0,0-20,20V123l-15.84,29.85a5.31,5.31,0,0,0,4.7,7.81h135a20,20,0,0,0,20-20V67.52a20,20,0,0,0-20-20,5.32,5.32,0,0,0,0,10.63,9.4,9.4,0,0,1,9.39,9.39v73.17a9.4,9.4,0,0,1-9.39,9.38H180.63L193,126.86l.08-.21a4.71,4.71,0,0,0,.21-.52,4,4,0,0,0,.15-.49c0-.16.07-.32.1-.49a3.66,3.66,0,0,0,0-.57,1.66,1.66,0,0,0,0-.22V67.52A9.4,9.4,0,0,1,203,58.13h73.32A5.32,5.32,0,0,0,281.59,52.81Z"/><path d="M228.44,249.79v-.73a5.32,5.32,0,0,0-10.64,0v.73a5.32,5.32,0,0,0,10.64,0Z"/><path d="M258.76,249.79v-.73a5.32,5.32,0,0,0-10.64,0v.73a5.32,5.32,0,0,0,10.64,0Z"/><path d="M289.08,249.79v-.73a5.32,5.32,0,0,0-10.63,0v.73a5.32,5.32,0,1,0,10.63,0Z"/><path d="M307.51,193.32H234.18a5.32,5.32,0,0,0,0,10.64h73.33a9.39,9.39,0,0,1,9.38,9.38v56.85c0,.07,0,.14,0,.21a5.51,5.51,0,0,0,.06.57c0,.17.06.34.1.5s.09.32.14.48.14.36.22.53l.08.2,12.32,23.21H203.63a9.39,9.39,0,0,1-9.38-9.38V213.34a9.39,9.39,0,0,1,9.38-9.38,5.32,5.32,0,0,0,0-10.64,20,20,0,0,0-20,20v73.17a20,20,0,0,0,20,20h135a5.32,5.32,0,0,0,4.7-7.81l-15.84-29.86V213.34A20,20,0,0,0,307.51,193.32Z"/><path d="M137.8,244.77v-2.89a5.32,5.32,0,0,0-5.32-5.32H70.54a5.32,5.32,0,0,0-5.32,5.32v2.89a36.29,36.29,0,1,0,72.58,0Zm-36.29,25.66A25.69,25.69,0,0,1,76,247.19h51.08A25.69,25.69,0,0,1,101.51,270.43Z"/><path d="M446.78,244.77v-2.89a5.32,5.32,0,0,0-5.32-5.32H379.52a5.32,5.32,0,0,0-5.32,5.32v2.89a36.29,36.29,0,1,0,72.58,0Zm-36.29,25.66A25.69,25.69,0,0,1,385,247.19H436A25.69,25.69,0,0,1,410.49,270.43Z"/><text x="0" y="527" fill="#000000" font-size="5px" font-weight="bold" font-family="'Helvetica Neue', Helvetica, Arial-Unicode, Arial, Sans-serif">Created by maxicons</text><text x="0" y="532" fill="#000000" font-size="5px" font-weight="bold" font-family="'Helvetica Neue', Helvetica, Arial-Unicode, Arial, Sans-serif">from the Noun Project</text></svg>