<svg xmlns="http://www.w3.org/2000/svg" viewBox="0 0 512 640" x="0px" y="0px"><title>outline deer  </title><path d="M180.43,490.72a14.82,14.82,0,0,0,10.73,4.62h11.73a14.83,14.83,0,0,0,14.79-14.6c.19-16.18,1.34-47.24,7-73.48a5.85,5.85,0,1,0-11.43-2.48C207.38,432,206.18,464,206,480.6a3.11,3.11,0,0,1-3.1,3H191.16a3.07,3.07,0,0,1-2.24-1,3.1,3.1,0,0,1-.85-2.31c2.51-45.26-.8-71.62-4-85.77-1.55-6.82-3.89-14.6-9.49-20.62a114.22,114.22,0,0,1-16.12-21.88,5.85,5.85,0,0,0-10.2,5.72A126.2,126.2,0,0,0,166,382c3.71,4,5.44,9.94,6.65,15.24,3,13.42,6.17,38.63,3.74,82.53A14.82,14.82,0,0,0,180.43,490.72Z"/><path d="M451.92,356a44.32,44.32,0,0,1-10.2-1,5.84,5.84,0,0,0-2.53,11.41,56.26,56.26,0,0,0,12.19,1.28H452a13,13,0,0,0,11.3-6.68,13.48,13.48,0,0,0-.14-13.42c-4.78-8.08-5.71-18.61-5.84-24.17a54.47,54.47,0,0,0-1.83-13.38c-9.94-36.1-44.44-38.4-58.8-37.71-.21,0-.4.06-.61.09C379.9,257.94,361.55,252,352.2,249.81a5.85,5.85,0,0,0-2.69,11.38c12.45,2.95,43,13.31,57.71,45.8a5.85,5.85,0,0,0,10.65-4.83,89.23,89.23,0,0,0-10.76-17.9c14,1.27,31.23,7.44,37.15,28.93a43.23,43.23,0,0,1,1.41,10.55c.16,6.7,1.33,19.48,7.46,29.85a1.7,1.7,0,0,1,0,1.72A1.36,1.36,0,0,1,451.92,356Z"/><path d="M310.1,227.61a16,16,0,0,1-7.85,2.95,11.31,11.31,0,0,1-6.66-1.14c-13.87-6.84-26.66-14.06-35.23-19.08a55.84,55.84,0,0,0-11.13-21.6c-1.78-2.15-3.62-4.31-5.48-6.41a5.85,5.85,0,0,0-8.76,7.75c1.77,2,3.53,4.06,5.23,6.11a45.48,45.48,0,0,1,10.41,29.31,5.84,5.84,0,0,0,5.85,5.78h.06a5.83,5.83,0,0,0,5.78-5.9c0-.14,0-.28,0-.42,7.93,4.5,17.71,9.82,28.1,14.95A22.89,22.89,0,0,0,304,242.13c5.62-.83,10.21-2.69,13.62-5.53a5.84,5.84,0,0,0-7.47-9Z"/><path d="M354.41,396.49a46.74,46.74,0,0,1,4.6,5.06,57.81,57.81,0,0,1,11.93,30.61l4.57,48.92a15.66,15.66,0,0,0,15.66,14.26H402a15.74,15.74,0,0,0,15.73-15.72V430.37a99.34,99.34,0,0,1,2.76-23.69,254.78,254.78,0,0,0,7-57.79,133,133,0,0,0-2.39-24,5.85,5.85,0,0,0-11.48,2.26,121.56,121.56,0,0,1,2.18,21.9,247.23,247.23,0,0,1-6.67,54.84,111.37,111.37,0,0,0-3.1,26.49v49.25a4,4,0,0,1-4,4H391.17a4,4,0,0,1-4-3.66l-4.57-48.92a69.6,69.6,0,0,0-14.4-36.77,56.24,56.24,0,0,0-7.52-7.88C352.8,377.51,351,369.23,351,369a5.85,5.85,0,0,0-11.49,2.17A46.57,46.57,0,0,0,345.21,385c-4.45,0-9.51-.06-14.78-.31a5.81,5.81,0,0,0-5.61-.34c-13.69-1-27.68-3.28-34.89-8.09a5.85,5.85,0,0,0-7.23.6,95.65,95.65,0,0,0-13.07,15.72,51.35,51.35,0,0,0-8.32,28.32v58.72a4,4,0,0,1-4,4H242.92a4,4,0,0,1-4-4V407.51c0-.74,0-1.5,0-2.28.08-9.37.18-22.19-10-27.62a194.6,194.6,0,0,1-19.53-11.85,5.85,5.85,0,1,0-6.68,9.6,206.19,206.19,0,0,0,20.69,12.56c3.91,2.09,3.84,10.84,3.79,17.22,0,.81,0,1.6,0,2.37v72.11a15.74,15.74,0,0,0,15.72,15.72h14.36A15.74,15.74,0,0,0,273,479.62V420.9A39.69,39.69,0,0,1,279.4,399a85.37,85.37,0,0,1,8.35-10.6c9.94,4.75,24.34,6.87,37.47,7.75,9.16,11.35,22.16,35.67,22.2,82.34a16.84,16.84,0,0,0,16.79,16.84,5.85,5.85,0,1,0,0-11.69,5.13,5.13,0,0,1-5.09-5.16c0-41.42-10-67-19.22-81.79C346.2,396.77,351.38,396.61,354.41,396.49Z"/><path d="M143.35,336c1.24.7,2.45,1.27,3.7,1.86s5.46,2.95,9.95,5.69a5.89,5.89,0,0,0,3,.85,5.85,5.85,0,0,0,3.05-10.84c-3.83-2.33-9-5.31-11.13-6.32-1-.48-2-.94-2.87-1.43C116.68,307.52,119,247.6,123,214.53A143.86,143.86,0,0,1,131,235a33.49,33.49,0,0,0,14.25,19.32A41.15,41.15,0,0,0,164,259.91h.21a5.84,5.84,0,0,0,.2-11.68,29.6,29.6,0,0,1-12.85-3.81,22.91,22.91,0,0,1-6.21-6,22.67,22.67,0,0,1-3.11-6.75c-3.9-13.41-11.35-28.22-16.92-38.28a35.9,35.9,0,0,1-4.49-17.31c.13-20.89,5.36-35.95,15.54-44.78,12.31-10.67,28.21-8.64,28.34-8.62a6,6,0,0,0,1.69,0c.18,0,18.37-2.49,31.09,11.29a5.84,5.84,0,0,0,8.26.33,5.67,5.67,0,0,0,1-1.25c22.17-4.72,26.59-24,25.77-34.06V97.57a28.74,28.74,0,0,0-11.57-23A23.24,23.24,0,0,1,211.58,56V50.21a5.2,5.2,0,1,1,10.39,0V51a19.73,19.73,0,0,0,39.46,0V33.85a5.51,5.51,0,0,1,11,0V56a24.56,24.56,0,0,1-24.53,24.52,5.84,5.84,0,0,0-5.84,5.85V103c0,26.44-16.42,36.38-30.2,40.06a5.75,5.75,0,0,0-1.47.66,5.83,5.83,0,0,0-3.65,7.3c2.33,7.27,3.45,15.25,3.51,25.09a35.85,35.85,0,0,1-4.49,17.31c-5.57,10.07-13,24.88-16.92,38.29a22.26,22.26,0,0,1-3.11,6.74,23.75,23.75,0,0,1-2.88,3.35,5.85,5.85,0,0,0,4.06,10.06A5.78,5.78,0,0,0,191,250.2a35.59,35.59,0,0,0,4.31-5,34.42,34.42,0,0,0,4.8-10.25c3.59-12.37,10.64-26.34,15.92-35.88a47.68,47.68,0,0,0,6-23,100.67,100.67,0,0,0-2.55-23.09A59,59,0,0,0,229.84,148,95.41,95.41,0,0,1,246,157a2.21,2.21,0,0,1,.88,2.7,2.12,2.12,0,0,1-2.24,1.59h-.33a38.9,38.9,0,0,0-9.54.89,5.85,5.85,0,1,0,2.33,11.46,26.81,26.81,0,0,1,6.62-.67h.37a14,14,0,0,0,8.49-25.63,111.56,111.56,0,0,0-12.44-7.38c7.59-7.84,13.61-19.54,13.61-36.94V91.74A36.29,36.29,0,0,0,284.13,56V33.85a17.2,17.2,0,0,0-34.39,0V51a8,8,0,0,1-16.07,0v-.76a16.9,16.9,0,0,0-33.79,0V56A35,35,0,0,0,214,84a17,17,0,0,1,6.85,13.6v1.7c0,.15,0,.35,0,.51.15,1.92.95,18.68-17.53,22V89.11a16.16,16.16,0,0,0-32.32,0v21.73a45.19,45.19,0,0,0-5.45.19,52.44,52.44,0,0,0-26.06,4.52V89.11a4.46,4.46,0,1,1,8.92,0V98.8a5.85,5.85,0,1,0,11.7,0V89.11a16.16,16.16,0,1,0-32.32,0v32.71c-18.48-3.37-17.69-20.12-17.53-22,0-.18,0-.36,0-.54v-1.7A17,17,0,0,1,117.11,84a35,35,0,0,0,14.07-28V50.21a16.89,16.89,0,0,0-33.78,0V51a8,8,0,0,1-16.07,0V33.85a17.2,17.2,0,0,0-34.39,0V56A36.29,36.29,0,0,0,77.31,91.74V103c0,17.4,6,29.1,13.61,36.94a111.56,111.56,0,0,0-12.44,7.38A14,14,0,0,0,87,172.93h.35a27.42,27.42,0,0,1,6.92.74,6.41,6.41,0,0,0,1.22.13,5.85,5.85,0,0,0,1.19-11.57,39.25,39.25,0,0,0-9.93-1h-.31a2.13,2.13,0,0,1-2.26-1.59,2.2,2.2,0,0,1,.88-2.7A95.8,95.8,0,0,1,101.23,148a58,58,0,0,0,10.4,4.88,105.89,105.89,0,0,0-2.52,23.17,47.64,47.64,0,0,0,4.73,20.58,3.49,3.49,0,0,0-.1.38C108,230.56,99.35,311.18,143.35,336ZM182.67,89.11a4.47,4.47,0,1,1,8.93,0v26.41a48.47,48.47,0,0,0-8.93-3.13ZM89,103V86.36a5.84,5.84,0,0,0-5.84-5.85A24.55,24.55,0,0,1,58.63,56V33.85a5.51,5.51,0,0,1,11,0V51a19.73,19.73,0,1,0,39.46,0v-.76a5.2,5.2,0,1,1,10.39,0V56a23.24,23.24,0,0,1-9.35,18.58,28.74,28.74,0,0,0-11.57,23V99c-.77,9.46,3.07,26.93,21.75,33a55.75,55.75,0,0,0-5.18,9.79C102.4,137.28,89,126.86,89,103Z"/><path d="M149.35,184.47a5.71,5.71,0,0,0,1.1-.32,5.87,5.87,0,0,0,1.9-1.27,5.14,5.14,0,0,0,.71-.89,5.48,5.48,0,0,0,.55-1,5.82,5.82,0,0,0,.33-1.1,6.12,6.12,0,0,0,.12-1.14,6.3,6.3,0,0,0-.12-1.14,6.2,6.2,0,0,0-.33-1.09,5.83,5.83,0,0,0-.55-1,5.27,5.27,0,0,0-1.6-1.61,6.16,6.16,0,0,0-1-.54,6.62,6.62,0,0,0-1.1-.34,5.88,5.88,0,0,0-5.28,1.6,6.29,6.29,0,0,0-.73.89,7.52,7.52,0,0,0-.54,1,7.18,7.18,0,0,0-.33,1.09,5.51,5.51,0,0,0-.11,1.14,5.38,5.38,0,0,0,.11,1.14,6.66,6.66,0,0,0,.33,1.1,7,7,0,0,0,.54,1,5.77,5.77,0,0,0,.73.89,5.83,5.83,0,0,0,4.14,1.71A4.91,4.91,0,0,0,149.35,184.47Z"/><path d="M178,182a5.86,5.86,0,0,0,1.62,1.62,5.44,5.44,0,0,0,1,.54,5.33,5.33,0,0,0,1.08.32,5.08,5.08,0,0,0,1.16.12,5.8,5.8,0,0,0,4.12-1.71,4.44,4.44,0,0,0,.73-.89,4.91,4.91,0,0,0,.54-1,5.2,5.2,0,0,0,.34-1.1,6.12,6.12,0,0,0,.12-1.14,6.3,6.3,0,0,0-.12-1.14,5.49,5.49,0,0,0-.34-1.09,5.18,5.18,0,0,0-.54-1,4.74,4.74,0,0,0-.73-.89,5.84,5.84,0,0,0-8.26,0,5.67,5.67,0,0,0-.73.89,7.52,7.52,0,0,0-.54,1,5.42,5.42,0,0,0-.32,1.09,4.91,4.91,0,0,0-.12,1.14,4.8,4.8,0,0,0,.12,1.14,5.15,5.15,0,0,0,.32,1.1A7,7,0,0,0,178,182Z"/><path d="M165.53,241.51a18.79,18.79,0,0,0,6.24-1.25l.33-.14a21.74,21.74,0,0,0,11.49-12.75,11.22,11.22,0,0,0-1.73-10.1,11.65,11.65,0,0,0-9.34-4.73h-3.64a5.85,5.85,0,1,0,0,11.7l3.43,0a10.16,10.16,0,0,1-4.84,5.17,8.34,8.34,0,0,1-1.94.44c-.8,0-7.61-.34-7.61-11.43a5.85,5.85,0,1,0-11.69,0C146.23,237.36,160.16,241.51,165.53,241.51Z"/><path d="M183.59,363.62h.31a5.84,5.84,0,0,0,5.83-5.55,44.9,44.9,0,0,0-5.22-23.92,5.85,5.85,0,1,0-10.28,5.59,33.12,33.12,0,0,1,3.82,17.73A5.85,5.85,0,0,0,183.59,363.62Z"/><path d="M250.51,268a5.86,5.86,0,0,0,5.8-5.13c2.23-18.07-6.55-28.16-6.92-28.58a5.85,5.85,0,0,0-8.74,7.77c.06.07,5.62,6.71,4,19.38a5.9,5.9,0,0,0,5.81,6.56Z"/><path d="M236.12,307.48a5.78,5.78,0,0,0,2.48.56,5.86,5.86,0,0,0,5.3-3.37,27.82,27.82,0,0,0,.91-22.2,70.61,70.61,0,0,1-4.69-18,5.85,5.85,0,1,0-11.63,1.2,81.27,81.27,0,0,0,5.44,21.07,16.17,16.17,0,0,1-.61,13A5.84,5.84,0,0,0,236.12,307.48Z"/><path d="M198,353.45a5.84,5.84,0,0,0,8.23-.74c8.91-10.66,5.26-26.86,5.1-27.55A5.85,5.85,0,0,0,200,327.82c.67,2.88,1.62,12.25-2.68,17.4A5.84,5.84,0,0,0,198,353.45Z"/><path d="M221.79,332a6.42,6.42,0,0,0,1.23.13,5.85,5.85,0,0,0,5.71-4.63,44.78,44.78,0,0,0-1.3-22.45,5.85,5.85,0,0,0-11,4,33,33,0,0,1,.86,16A5.85,5.85,0,0,0,221.79,332Z"/><path d="M332.28,345.65c-3.33,2.71-7.13,9.11-7.61,16.77a5.84,5.84,0,0,0,5.48,6.19h.36a5.84,5.84,0,0,0,5.83-5.48,13.84,13.84,0,0,1,3.32-8.42,5.85,5.85,0,0,0-7.38-9.07Z"/><path d="M341,243.14a5.85,5.85,0,0,0-8-2.09c-5.1,3-11,1.32-11.18,1.27a5.84,5.84,0,0,0-3.51,11.15,26.86,26.86,0,0,0,7.66,1,25.43,25.43,0,0,0,12.93-3.37A5.85,5.85,0,0,0,341,243.14Z"/><text x="0" y="527" fill="#000000" font-size="5px" font-weight="bold" font-family="'Helvetica Neue', Helvetica, Arial-Unicode, Arial, Sans-serif">Created by maxicons</text><text x="0" y="532" fill="#000000" font-size="5px" font-weight="bold" font-family="'Helvetica Neue', Helvetica, Arial-Unicode, Arial, Sans-serif">from the Noun Project</text></svg>