<svg xmlns="http://www.w3.org/2000/svg" xmlns:xlink="http://www.w3.org/1999/xlink" version="1.1" x="0px" y="0px" viewBox="0 0 512 640" style="enable-background:new 0 0 512 512;" xml:space="preserve"><path d="M190.1,344.5h2.8c5.1,0,9.8-2.3,12.9-6.3c3.1-4,4.2-9.1,2.9-14.1l-3.8-13.8c-0.8-3.1-4-4.9-7-4c-3.1,0.8-4.9,4-4,7l3.7,13.7  c0.4,1.5,0.1,3-0.9,4.2c-0.9,1.2-2.3,1.9-3.8,1.9h-2.8c-3.2,0-5.7,2.6-5.7,5.7C184.4,341.9,186.9,344.5,190.1,344.5z"/><path d="M150.2,301.1c1.1,0.1,2.2,0.1,3.3-0.1c3.1-0.4,6.6-1.4,10.2-2.9c1.6-0.7,3.4-0.8,5.1-0.5c1.8,0.3,3.4,0.9,4.7,1.6  c3.3,1.8,6.8,2.6,10.3,2.6c4.3,0,8.5-1.3,11.9-3.8c3.9-2.9,6.6-6.8,8.2-11.6c1.6-5.1,1.6-10.7-0.2-16.2c-2.3-7.2-7-21.5-12.9-36.5  c-1.2-2.9-4.5-4.4-7.4-3.2c-2.9,1.2-4.4,4.5-3.2,7.4c5.8,14.6,10.4,28.7,12.7,35.7c1,3.2,1.1,6.4,0.2,9.2c-0.8,2.6-2.2,4.5-4.1,5.9  c-2.7,2-6.6,2.1-10,0.3c-2.4-1.3-5.1-2.2-8.1-2.8c-3.9-0.7-7.9-0.3-11.5,1.1c-2.8,1.1-5.3,1.8-7.5,2.1c-2.2,0.3-3.7-0.8-4.3-1.5  c-1.2-1.2-1.7-2.9-1.4-4.6c1.1-6.6,3.3-15.4,6.5-25.5c3.2-10.2,6-21.1,8.5-32.4c0.9-4.3,1.9-8.4,3-12.2c0.4-1.5,1.6-1.8,2.3-1.9  c0.5-0.1,1.9,0,2.6,1.4c0.9,1.7,1.8,3.6,2.8,5.6c1.4,2.9,4.8,4.1,7.6,2.7c2.9-1.4,4.1-4.8,2.7-7.6c-1-2.1-2-4.1-3-5.9  c-2.7-5.2-8.2-8.1-14-7.5c-5.8,0.6-10.6,4.6-12.1,10.2c-1.1,4-2.2,8.4-3.2,12.9c-2.4,11-5.1,21.6-8.2,31.4  c-3.3,10.8-5.6,19.9-6.8,27c-0.9,5.3,0.8,10.6,4.5,14.4c0.1,0.1,0.1,0.1,0.2,0.2l-6.9,28.1c-1.2,4.9-0.1,10,3,13.9  c3.1,4,7.8,6.2,12.8,6.2h14.6v14c0,3.2,2.6,5.7,5.7,5.7s5.7-2.6,5.7-5.7v-19.8c0-3.2-2.6-5.7-5.7-5.7h-20.3c-1.5,0-2.9-0.7-3.8-1.8  c-0.9-1.2-1.2-2.7-0.9-4.1L150.2,301.1z"/><path d="M331.6,298.3c0.8-3.1-1-6.2-4-7c-3.1-0.8-6.2,1-7,4l-3.8,13.9c-1.3,4.9-0.2,10,2.9,14c3.1,4,7.8,6.3,12.9,6.3h2.8  c3.2,0,5.7-2.6,5.7-5.7c0-3.2-2.6-5.7-5.7-5.7h-2.8c-1.5,0-2.9-0.7-3.8-1.9c-0.9-1.2-1.2-2.7-0.9-4.1L331.6,298.3z"/><path d="M377,317.9h-20.3c-3.2,0-5.7,2.6-5.7,5.7v19.8c0,3.2,2.6,5.7,5.7,5.7c3.2,0,5.7-2.6,5.7-5.7v-14H377c5,0,9.7-2.3,12.8-6.2  c3.1-4,4.2-9,3-13.9l-6.9-28.1c0.1-0.1,0.1-0.1,0.2-0.2c3.7-3.9,5.4-9.1,4.5-14.4c-1.2-7.2-3.5-16.3-6.8-27  c-3.1-9.9-5.8-20.4-8.2-31.4c-1-4.5-2-8.8-3.2-12.9c-1.6-5.6-6.3-9.6-12.1-10.2c-5.8-0.6-11.3,2.3-14,7.5  c-11,21.2-20.9,50.8-24.6,62.6c-1.7,5.5-1.8,11.1-0.2,16.2c1.6,4.9,4.3,8.8,8.2,11.6c3.4,2.5,7.6,3.8,11.9,3.8  c3.5,0,7.1-0.9,10.3-2.6c1.3-0.7,2.9-1.3,4.7-1.6c1.7-0.3,3.5-0.2,5.1,0.5c3.7,1.5,7.1,2.4,10.2,2.9c1.1,0.1,2.2,0.2,3.3,0.1l6.4,26  c0.4,1.4,0,3-0.9,4.1C379.9,317.3,378.5,317.9,377,317.9z M377.9,273c-0.7,0.7-2.1,1.8-4.3,1.5c-2.2-0.3-4.7-1-7.5-2.1  c-3.6-1.5-7.6-1.9-11.5-1.1c-3,0.6-5.7,1.5-8.1,2.8c-3.3,1.8-7.3,1.7-10-0.3c-1.9-1.4-3.3-3.4-4.1-5.9c-0.9-2.8-0.8-6,0.2-9.2  c3.6-11.5,13.3-40.4,23.9-60.8c0.6-1.2,1.7-1.4,2.3-1.4c0.1,0,0.2,0,0.3,0c0.7,0.1,1.8,0.4,2.3,1.9c1.1,3.8,2.1,7.9,3,12.2  c2.5,11.3,5.3,22.2,8.5,32.4c3.1,10.1,5.4,18.9,6.5,25.5C379.6,270.1,379.1,271.8,377.9,273z"/><path d="M484.9,332.3c-92.8,0-146.8,38-170.7,60.6c-2.3,2.2-2.4,5.8-0.2,8.1c1.1,1.2,2.6,1.8,4.2,1.8c1.4,0,2.8-0.5,3.9-1.6  c22.6-21.5,73.9-57.5,162.8-57.5c3.2,0,5.7-2.6,5.7-5.7C490.7,334.9,488.1,332.3,484.9,332.3z"/><path d="M250.2,410.7c-43-25.8-87.5-37.8-122.4-43.4c-57-9-99.8-3.2-101.6-2.9c-3.1,0.4-5.3,3.3-4.9,6.5c0.4,3.1,3.3,5.3,6.5,4.9  c0.4-0.1,42.9-5.8,98.2,2.9c50.9,8,123.3,30.4,179,91.3c1.1,1.2,2.7,1.9,4.2,1.9c1.4,0,2.8-0.5,3.9-1.5c2.3-2.1,2.5-5.8,0.4-8.1  c-15.2-16.6-31.6-30.5-48.4-42c27.1-2.3,73.4,2.6,115.9,49.7c1.1,1.3,2.7,1.9,4.3,1.9c1.4,0,2.7-0.5,3.8-1.5  c2.4-2.1,2.5-5.7,0.4-8.1C335.5,402.4,275.2,405.9,250.2,410.7z"/><path d="M121.3,265.4c0.6-3.2,0.5-6.6-0.3-10.1c-1.2-5.3-4.6-19.1-9.3-31.5c-4-10.6-7.4-21.4-10.1-32.1c-0.8-3.1-1.6-6.2-2.5-9.1  c-0.9-3-4.1-4.7-7.2-3.8c-3,0.9-4.7,4.1-3.8,7.2c0.8,2.8,1.6,5.7,2.4,8.6c2.8,11.1,6.3,22.3,10.5,33.3c4.4,11.7,7.6,24.9,8.8,30  c0.5,2,0.5,3.8,0.2,5.5c-0.4,2.2-1.2,6.7-10.8,6.7c-0.1,0-0.1,0-0.2,0c-6.6,0-13.3-2.3-18.8-6.5c-6.5-5-15.3-9.8-20-12.3  c-3.8-2-8.1-2.6-12.1-1.7l-0.4,0.1c-2.8,0.6-5.1,0.2-6.7-1.1c-1.5-1.3-2.1-3.4-1.9-6.1c0.4-5.4,1.4-11.1,2.9-17  c1.3-5.2,3.3-10.5,6-16.1c6.6-13.8,14.7-38.4,15-39.4c0-0.1,0.1-0.3,0.1-0.5c0.9-3.7,2.1-6.9,3.5-9.5c1.5-2.7,4.1-3.1,5.1-3.1  c1.1,0,3.6,0.2,5.2,2.9c1.3,2.1,2.5,4.4,3.8,7c1.4,2.9,4.8,4,7.7,2.7c2.9-1.4,4-4.8,2.7-7.7c-1.4-2.8-2.8-5.5-4.3-7.9  c-3.2-5.3-8.8-8.4-14.9-8.4c-0.1,0-0.2,0-0.3,0c-6.3,0.1-11.8,3.4-14.9,8.9c-1.9,3.4-3.5,7.5-4.6,12.2c-0.8,2.5-8.5,25.4-14.4,37.8  c-3,6.3-5.2,12.2-6.7,18.2c-1.7,6.5-2.8,12.9-3.2,18.9c-0.5,6.4,1.6,11.9,5.8,15.6c0.7,0.6,1.4,1.1,2.2,1.6  c-3.9,20.1-7.2,36.9-9.7,50.2c-1,5.3,0.4,10.7,3.8,14.9c3.4,4.2,8.5,6.5,13.9,6.5h25.2v16c0,3.2,2.6,5.7,5.7,5.7  c3.2,0,5.7-2.6,5.7-5.7v-21.8c0-3.2-2.6-5.7-5.7-5.7H43.7c-2,0-3.8-0.9-5.1-2.4c-1.2-1.5-1.8-3.5-1.4-5.4  c2.5-13.2,5.7-29.9,9.6-49.8c1.1-0.1,2.2-0.2,3.3-0.5l0.3-0.1c1.5-0.3,3.1-0.1,4.5,0.7c4.3,2.3,12.5,6.7,18.3,11.2  c7.5,5.7,16.6,8.9,25.8,8.9c0.1,0,0.2,0,0.3,0c0.4,0,0.7,0,1.1,0l6.6,29.4c0.4,2,0,4-1.3,5.5c-1.3,1.6-3.1,2.5-5.1,2.5h-3.7  c-3.2,0-5.7,2.6-5.7,5.7s2.6,5.7,5.7,5.7h3.7c5.5,0,10.6-2.5,14.1-6.8c3.4-4.3,4.7-9.8,3.5-15.2l-6.6-29.4  C118.2,275.5,120.5,269.5,121.3,265.4z"/><path d="M407.6,249c-0.7,3-0.8,5.8-0.3,8.5c0.9,5,3.6,8.8,7.6,11.1l-5.1,22.6c-1,4.6,0.1,9.4,3,13.1c3,3.7,7.4,5.8,12.1,5.8h2.9  c3.2,0,5.7-2.6,5.7-5.7c0-3.2-2.6-5.7-5.7-5.7H425c-1.7,0-2.7-1-3.2-1.5c-0.5-0.6-1.2-1.8-0.8-3.4l5-22.5c0,0,0.1,0,0.1,0  c7.5,0,15.1-2.6,21.2-7.3c4.6-3.5,11-7,14.4-8.8c0.9-0.5,1.9-0.6,2.8-0.4l0.2,0.1c0.6,0.1,1.3,0.2,1.9,0.3  c3.1,15.8,5.5,28.5,7.5,38.8c0.3,1.6-0.4,2.8-0.9,3.3c-0.5,0.5-1.5,1.5-3.1,1.5h-24.6c-3.2,0-5.7,2.6-5.7,5.7v17.3  c0,3.2,2.6,5.7,5.7,5.7c3.2,0,5.7-2.6,5.7-5.7v-11.6h18.9c4.6,0,9-2.1,12-5.6c3-3.6,4.2-8.2,3.3-12.8c-2-10.3-4.5-23.2-7.6-39.2  c0.4-0.3,0.8-0.6,1.2-0.9c3.6-3.2,5.5-8.1,5-13.4c-0.4-4.9-1.3-10-2.6-15.2c-1.2-4.8-3-9.6-5.4-14.7c-4.7-9.8-10.7-27.7-11.4-29.9  c-0.9-3.8-2.2-7.2-3.8-9.9c-2.7-4.7-7.5-7.6-12.9-7.7c-0.1,0-0.2,0-0.3,0c-5.3,0-10.1,2.7-12.9,7.2c-1.2,2-2.4,4.1-3.5,6.4  c-1.4,2.9-0.2,6.3,2.7,7.7c2.8,1.4,6.3,0.2,7.7-2.7c0.9-2,1.9-3.8,2.9-5.4c1-1.6,2.6-1.8,3.1-1.7c0.6,0,2.2,0.2,3.1,1.8  c1.1,1.9,2,4.4,2.7,7.2c0,0.2,0.1,0.3,0.1,0.5c0.3,0.8,6.7,20.5,12,31.5c2.1,4.4,3.6,8.5,4.7,12.6c1.2,4.6,2,9.1,2.3,13.3  c0.1,1.7-0.3,3.1-1.1,3.9c-0.9,0.8-2.5,1-4.3,0.6l-0.4-0.1c-3.5-0.7-7.2-0.2-10.4,1.5c-3.7,2-10.8,5.8-16.1,9.9  c-4.2,3.2-9.2,5-14.2,5c0,0-0.1,0-0.1,0c-6.7,0-7.2-2.9-7.5-4.4c-0.2-1.1-0.1-2.4,0.2-3.9c0.9-4,3.5-14.5,7-23.7  c3.3-8.8,6.1-17.7,8.4-26.6c0.6-2.3,1.2-4.6,1.9-6.8c0.9-3-0.8-6.2-3.8-7.2c-3-0.9-6.2,0.8-7.2,3.8c-0.7,2.3-1.4,4.8-2,7.3  c-2.1,8.5-4.8,17-8,25.4C411.3,233.7,408.6,244.7,407.6,249z"/><path d="M284.1,356.7h-3.1c-3.2,0-5.7,2.6-5.7,5.7s2.6,5.7,5.7,5.7h3.1c5.3,0,10.3-2.4,13.6-6.6c3.3-4.2,4.4-9.6,3.1-14.8l-8.7-34.1  c1.5-2.1,2.7-4.5,3.5-7.1c1.7-5.4,1.7-11.4-0.2-17.2c-3.1-9.9-11.5-35.2-21.3-56.7c0,0,0,0,0,0c-1.8-4-3.6-7.7-5.3-11  c-2.8-5.4-8.6-8.5-14.7-7.9c-6.1,0.6-11.1,4.9-12.7,10.7c-1.2,4.4-2.4,9-3.4,13.9c-2.6,11.9-5.6,23.4-8.9,34.1  c-3.6,11.6-6.1,21.5-7.4,29.2c-0.9,5.6,0.8,11.1,4.7,15.2c0.1,0.1,0.3,0.2,0.4,0.3l-7.5,30.7c-1.3,5.2-0.1,10.5,3.2,14.7  c3.3,4.2,8.2,6.6,13.5,6.6h16.3V391c0,3.2,2.6,5.7,5.7,5.7s5.7-2.6,5.7-5.7v-28.7c0-3.2-2.6-5.7-5.7-5.7h-22c-1.8,0-3.4-0.8-4.5-2.2  c-1.1-1.4-1.5-3.2-1.1-4.9l7-28.5c1.3,0.1,2.6,0.1,3.9-0.1c3.3-0.4,7-1.5,11-3.1c1.8-0.7,3.8-0.9,5.8-0.6c2,0.4,3.8,1,5.3,1.8  c3.5,1.9,7.2,2.8,11,2.8c2.7,0,5.4-0.5,7.9-1.5l7.4,29.1c0.4,1.7,0.1,3.5-1,4.9C287.6,355.9,285.9,356.7,284.1,356.7z M284.7,302.1  c-0.9,2.9-2.4,5-4.6,6.6c-3.1,2.3-7.5,2.4-11.3,0.4c-2.5-1.4-5.4-2.4-8.6-3c-1.4-0.3-2.7-0.4-4.1-0.4c-2.8,0-5.5,0.5-8.1,1.6  c-3.1,1.2-5.8,2-8.2,2.3c-1.9,0.3-3.7-0.4-5.1-1.8c-1.4-1.4-2-3.4-1.7-5.4c1.2-7.1,3.6-16.7,7-27.7c3.4-11,6.5-22.8,9.2-35.1  c1-4.6,2.1-9.1,3.3-13.3c0.5-2,2.2-2.3,2.9-2.4c0.7-0.1,2.4,0,3.3,1.8c1.6,3.1,3.3,6.7,5.1,10.4v0c9.5,21,17.7,45.8,20.8,55.5  C285.6,295.3,285.7,298.9,284.7,302.1z"/><path d="M155.5,134.3c0-7.7-3.8-14.8-10.2-19.1c-2.6-1.8-6.2-1.1-8,1.5c-1.8,2.6-1.1,6.2,1.5,8c3.2,2.2,5.1,5.8,5.1,9.6  c0,6.4-5.2,11.6-11.6,11.6c-6.4,0-11.6-5.2-11.6-11.6c0-3.1,1.2-6,3.4-8.2c2.2-2.2,2.2-5.9,0-8.1c-2.2-2.2-5.9-2.2-8.1,0  c-4.3,4.4-6.7,10.1-6.7,16.3c0,12.7,10.4,23.1,23.1,23.1C145.2,157.3,155.5,147,155.5,134.3z"/><path d="M53.9,79c1.3,3.8,3.9,6.9,7.5,8.7c2.1,1.1,4.4,1.6,6.8,1.6c1.6,0,3.2-0.3,4.7-0.8c4.8-1.6,8.4-5.4,9.8-10.2  c0.9-3-0.9-6.2-4-7.1c-3-0.9-6.2,0.9-7.1,4c-0.3,1.2-1.2,2.1-2.3,2.4c-0.9,0.3-1.9,0.2-2.7-0.2c-0.9-0.4-1.5-1.2-1.8-2.1  c-0.6-1.9,0.4-3.9,2.3-4.5c0.4-0.1,0.8-0.2,1.2-0.2c3.1,0.1,5.8-2.4,5.9-5.6c0.1-3.2-2.4-5.8-5.6-5.9c-1.7,0-3.4,0.2-5.1,0.8  C55.6,62.6,51.3,71.2,53.9,79z"/><path d="M238,41.8c-0.3,0.3-0.5,0.6-0.7,0.9c-0.2,0.3-0.4,0.6-0.5,1c-0.1,0.3-0.2,0.7-0.3,1.1c-0.1,0.4-0.1,0.7-0.1,1.1  c0,0.4,0,0.7,0.1,1.1c0.1,0.4,0.2,0.7,0.3,1.1c0.1,0.3,0.3,0.7,0.5,1c0.2,0.3,0.5,0.6,0.7,0.9c1.1,1.1,2.5,1.7,4.1,1.7  c1.5,0,3-0.6,4.1-1.7c0.3-0.3,0.5-0.6,0.7-0.9c0.2-0.3,0.4-0.6,0.5-1c0.1-0.3,0.3-0.7,0.3-1.1c0.1-0.4,0.1-0.7,0.1-1.1  c0-0.4,0-0.8-0.1-1.1c-0.1-0.4-0.2-0.7-0.3-1.1c-0.1-0.3-0.3-0.7-0.5-1c-0.2-0.3-0.4-0.6-0.7-0.9c-1.1-1.1-2.6-1.7-4.1-1.7  C240.5,40.1,239.1,40.7,238,41.8z"/><path d="M253.7,140.5c0,10.9,8.9,19.8,19.8,19.8c10.9,0,19.8-8.9,19.8-19.8s-8.9-19.8-19.8-19.8  C262.6,120.6,253.7,129.5,253.7,140.5z M281.9,140.5c0,4.6-3.8,8.4-8.4,8.4c-4.6,0-8.4-3.8-8.4-8.4s3.8-8.4,8.4-8.4  C278.1,132.1,281.9,135.9,281.9,140.5z"/><path d="M385.7,77.4c3,0.9,6.2-0.9,7.1-4c0.5-1.7,0.6-3.4,0.5-5.1c-0.6-8.3-7.8-14.5-16.1-14c-4,0.3-7.7,2.1-10.3,5.1  c-2.6,3-3.9,6.9-3.7,10.9c0.4,5,3.2,9.5,7.5,12c0.9,0.5,1.9,0.8,2.9,0.8c2,0,3.9-1,5-2.9c1.6-2.7,0.6-6.2-2.1-7.8  c-1-0.6-1.7-1.7-1.8-2.9c-0.1-1,0.2-1.9,0.9-2.6c0.6-0.7,1.5-1.2,2.5-1.2c1.9-0.1,3.7,1.4,3.8,3.3c0,0.4,0,0.8-0.1,1.2  C380.9,73.3,382.7,76.5,385.7,77.4z"/><path d="M451.9,113c0.3,0.1,0.7,0.3,1.1,0.3c0.4,0.1,0.7,0.1,1.1,0.1s0.7,0,1.1-0.1c0.4-0.1,0.7-0.2,1.1-0.3c0.3-0.1,0.7-0.3,1-0.5  c0.3-0.2,0.6-0.4,0.9-0.7c0.3-0.3,0.5-0.6,0.7-0.9c0.2-0.3,0.4-0.6,0.5-1c0.1-0.3,0.3-0.7,0.3-1.1c0.1-0.4,0.1-0.7,0.1-1.1  c0-1.5-0.6-3-1.7-4.1c-0.3-0.3-0.6-0.5-0.9-0.7c-0.3-0.2-0.6-0.4-1-0.5c-0.3-0.1-0.7-0.3-1.1-0.3c-0.7-0.2-1.5-0.2-2.2,0  c-0.4,0.1-0.7,0.2-1.1,0.3c-0.3,0.1-0.7,0.3-1,0.5c-0.3,0.2-0.6,0.4-0.9,0.7c-1.1,1.1-1.7,2.6-1.7,4.1c0,1.5,0.6,3,1.7,4.1  c0.3,0.3,0.6,0.5,0.9,0.7C451.2,112.7,451.5,112.8,451.9,113z"/><text x="0" y="527" fill="#000000" font-size="5px" font-weight="bold" font-family="'Helvetica Neue', Helvetica, Arial-Unicode, Arial, Sans-serif">Created by maxicons</text><text x="0" y="532" fill="#000000" font-size="5px" font-weight="bold" font-family="'Helvetica Neue', Helvetica, Arial-Unicode, Arial, Sans-serif">from the Noun Project</text></svg>