<svg xmlns="http://www.w3.org/2000/svg" xmlns:xlink="http://www.w3.org/1999/xlink" version="1.1" x="0px" y="0px" viewBox="0 0 512 640" style="enable-background:new 0 0 512 512;" xml:space="preserve"><path d="M227,490.7h36.1c3.2,0,5.7-2.6,5.7-5.7s-2.6-5.7-5.7-5.7H227c-3.2,0-5.7,2.6-5.7,5.7S223.8,490.7,227,490.7z"/><path d="M200.7,393.4c3.2,0,5.7-2.6,5.7-5.7c0-3.2-2.6-5.7-5.7-5.7h-3c-3.2,0-5.7,2.6-5.7,5.7c0,3.2,2.6,5.7,5.7,5.7H200.7z"/><path d="M276.7,435.5c-3.2,0-5.7,2.6-5.7,5.7c0,3.2,2.6,5.7,5.7,5.7h34.5c3.2,0,5.7-2.6,5.7-5.7c0-3.2-2.6-5.7-5.7-5.7H276.7z"/><path d="M71.3,441.2c0,3.2,2.6,5.7,5.7,5.7h147.1c3.2,0,5.7-2.6,5.7-5.7c0-3.2-2.6-5.7-5.7-5.7H77.1C73.9,435.5,71.3,438,71.3,441.2  z"/><path d="M347.4,387.6c0-3.2-2.6-5.7-5.7-5.7H240.5c-3.2,0-5.7,2.6-5.7,5.7c0,3.2,2.6,5.7,5.7,5.7h101.2  C344.8,393.4,347.4,390.8,347.4,387.6z"/><path d="M27.1,346h36.8c3.2,0,5.7-2.6,5.7-5.7c0-3.2-2.6-5.7-5.7-5.7H27.1c-3.2,0-5.7,2.6-5.7,5.7C21.3,343.4,23.9,346,27.1,346z"/><path d="M27.1,300.4h54.7v58.8c0,17.1-16.3,22.7-17,23c-3,1-4.6,4.2-3.7,7.2c0.8,2.4,3,4,5.5,4c0.6,0,1.2-0.1,1.7-0.3  c8.6-2.8,24.9-13.4,24.9-33.9V28.5c0-3.2-2.6-5.7-5.7-5.7c-3.2,0-5.7,2.6-5.7,5.7v80.9c-0.1,0-0.1-0.1-0.2-0.1l-9-8.2  c-5-4.6-7.9-11.1-7.9-17.9v-7.4c0-3.2-2.6-5.7-5.7-5.7c-3.2,0-5.7,2.6-5.7,5.7v7.4c0,10,4.2,19.6,11.6,26.4l9,8.2  c5,4.6,7.9,11.1,7.9,17.9v11.6c0,0,0,0,0,0v76c-0.1,0-0.1-0.1-0.2-0.1l-9-8.2c-5-4.6-7.9-11.1-7.9-17.9v-7.4c0-3.2-2.6-5.7-5.7-5.7  c-3.2,0-5.7,2.6-5.7,5.7v7.4c0,10,4.2,19.6,11.6,26.4l9,8.2c5,4.6,7.9,11.1,7.9,17.9V261c0,0,0,0,0,0v28H27.1  c-3.2,0-5.7,2.6-5.7,5.7S23.9,300.4,27.1,300.4z"/><path d="M199.4,289h-42.9c-3.2,0-5.7,2.6-5.7,5.7s2.6,5.7,5.7,5.7h84.4c3.2,0,5.7-2.6,5.7-5.7s-2.6-5.7-5.7-5.7h-30v-11v-0.5V160.9  c0-3.2-2.6-5.7-5.7-5.7s-5.7,2.6-5.7,5.7v92.6c-0.3-0.2-0.5-0.4-0.8-0.6l-4.5-3.4c-4.8-3.7-7.7-9.4-7.7-15.5v-11.8  c0-3.2-2.6-5.7-5.7-5.7c-3.2,0-5.7,2.6-5.7,5.7v11.8c0,9.6,4.6,18.8,12.3,24.6l4.5,3.4c4.8,3.6,7.7,9.4,7.7,15.5v0.5V289z"/><path d="M289,334.5h-20.8c3.5-4.4,5.8-9.2,7.3-13.4c1.6-4.5,2.4-9.3,2.4-14.3V99.4V91V27.1c0-3.2-2.6-5.7-5.7-5.7  c-3.2,0-5.7,2.6-5.7,5.7v35.3c-2-2.1-4.2-4-6.6-5.6c0,0-0.1-0.1-0.1-0.1c-8.2-5.6-13.1-14.9-13.1-24.8v-3.3c0-3.2-2.6-5.7-5.7-5.7  c-3.2,0-5.7,2.6-5.7,5.7v3.3c0,13.7,6.7,26.5,18,34.3c0,0,0.1,0.1,0.1,0.1c8.2,5.6,13.1,14.9,13.1,24.8v8.4v207.4  c0,3.7-0.6,7.2-1.7,10.5c-2.1,5.9-6.4,13.6-15,17.2H133.7V208.1v-11.6c0-6.8,2.9-13.3,7.9-17.9l9-8.2c7.4-6.8,11.6-16.4,11.6-26.4  v-7.4c0-3.2-2.6-5.7-5.7-5.7c-3.2,0-5.7,2.6-5.7,5.7v7.4c0,6.8-2.9,13.3-7.9,17.9l-9,8.2c-0.1,0-0.1,0.1-0.2,0.1V28.5  c0-3.2-2.6-5.7-5.7-5.7c-3.2,0-5.7,2.6-5.7,5.7v168v11.6v151c-0.1,1.7-0.3,13.5,5.7,22.8h-25c-3.2,0-5.7,2.6-5.7,5.7  c0,3.2,2.6,5.7,5.7,5.7h60.9c3.2,0,5.7-2.6,5.7-5.7c0-3.2-2.6-5.7-5.7-5.7h-14.2c-4.4,0-7.8-1.3-10.3-3.9c-5-5.3-5.8-15.1-5.6-18.5  c0-0.1,0-0.2,0-0.3V346h117c0,0,0,0,0,0c0,0,0,0,0,0H289c3.2,0,5.7-2.6,5.7-5.7C294.7,337.1,292.1,334.5,289,334.5z"/><path d="M484.9,479.2h-9.3c-4-1.5-21.9-9.6-21.9-30.5V323.5c0,0,0,0,0,0v-14.8c0-9.1,3.9-17.8,10.6-24l11.4-10.5  c9.1-8.3,14.3-20.1,14.3-32.4v-9.4c0-3.2-2.6-5.7-5.7-5.7c-3.2,0-5.7,2.6-5.7,5.7v9.4c0,9.1-3.9,17.8-10.6,24l-11.4,10.5  c-1,0.9-1.9,1.9-2.8,2.9V178.4c0,0,0,0,0,0v-14.8c0-9.1,3.9-17.8,10.6-24l11.4-10.5c9.1-8.3,14.3-20.1,14.3-32.4v-9.4  c0-3.2-2.6-5.7-5.7-5.7c-3.2,0-5.7,2.6-5.7,5.7v9.4c0,9.1-3.9,17.8-10.6,24l-11.4,10.5c-1,0.9-1.9,1.9-2.8,2.9v-107  c0-3.2-2.6-5.7-5.7-5.7c-3.2,0-5.7,2.6-5.7,5.7v421.6c0,13.5,5.8,23.6,12.8,30.5h-12.3h-49.1c9.1-11.8,8.8-28.6,8.7-30.6V256v-14.8  V27.1c0-3.2-2.6-5.7-5.7-5.7c-3.2,0-5.7,2.6-5.7,5.7v184.6c-0.9-1-1.8-1.9-2.8-2.9l-11.4-10.5c-6.7-6.1-10.6-14.9-10.6-24V165  c0-3.2-2.6-5.7-5.7-5.7c-3.2,0-5.7,2.6-5.7,5.7v9.4c0,12.3,5.2,24.1,14.3,32.4l11.4,10.5c6.7,6.1,10.6,14.9,10.6,24V256v33h-82.6  V143.8c1-8.6,5.6-16.5,13-21.5c11.3-7.8,18-20.6,18-34.3v-3.3c0-3.2-2.6-5.7-5.7-5.7c-3.2,0-5.7,2.6-5.7,5.7V88  c0,9.9-4.9,19.2-13.2,24.9c-2.3,1.6-4.5,3.4-6.4,5.4V27.1c0-3.2-2.6-5.7-5.7-5.7c-3.2,0-5.7,2.6-5.7,5.7v116.3  c-0.1,1.3-0.2,2.5-0.2,3.8v8.4c0,0.5,0.1,1,0.2,1.4v150.6c0,8.2,2.1,16.1,6.2,22.6l0.2,0.4c6,9.6,16.5,15.3,28.1,15.3h10.5  c3.2,0,5.7-2.6,5.7-5.7c0-3.2-2.6-5.7-5.7-5.7h-10.5c-7.5,0-14.5-3.8-18.4-9.9l-0.2-0.3c-2.9-4.8-4.5-10.5-4.5-16.6v-7.2h82.6v135  h-36c-3.2,0-5.7,2.6-5.7,5.7c0,3.2,2.6,5.7,5.7,5.7h36v1.8c0,0.1,0,0.2,0,0.3c0,0.2,0.6,16.1-7.6,24.7c-3.5,3.7-8.2,5.5-14.3,5.5  h-43.5c-3.2,0-5.7,2.6-5.7,5.7s2.6,5.7,5.7,5.7h117.3h32c0,0,0,0,0,0c0,0,0,0,0,0h10.2c3.2,0,5.7-2.6,5.7-5.7  S488.1,479.2,484.9,479.2z"/><path d="M27.1,490.7h141.8c3.2,0,5.7-2.6,5.7-5.7s-2.6-5.7-5.7-5.7H27.1c-3.2,0-5.7,2.6-5.7,5.7S23.9,490.7,27.1,490.7z"/><text x="0" y="527" fill="#000000" font-size="5px" font-weight="bold" font-family="'Helvetica Neue', Helvetica, Arial-Unicode, Arial, Sans-serif">Created by maxicons</text><text x="0" y="532" fill="#000000" font-size="5px" font-weight="bold" font-family="'Helvetica Neue', Helvetica, Arial-Unicode, Arial, Sans-serif">from the Noun Project</text></svg>