<svg xmlns="http://www.w3.org/2000/svg" xmlns:xlink="http://www.w3.org/1999/xlink" version="1.1" x="0px" y="0px" viewBox="0 0 512 640" style="enable-background:new 0 0 512 512;" xml:space="preserve"><g><path d="M455.6,154.1c-2.2-12-14.1-55.7-70.2-58.8c-0.4,0-43-2.4-62.7,35.4c0,0-0.1,0-0.1,0c-7,0.8-13.9,2.4-20.4,5   c-2.9,1.1-4.3,4.4-3.2,7.2c1.1,2.9,4.4,4.3,7.2,3.2c5.6-2.2,11.5-3.6,17.6-4.3c1.7-0.2,2.7-0.2,2.7-0.2c2.1-0.1,4-1.3,4.9-3.2   c15.7-33.8,51.8-32,53.4-31.9c55.1,3.1,60.1,49.7,60.3,51.7c0.2,1.9,1.3,3.5,2.9,4.4c30.1,16.2,25.8,64.2,25.7,64.7   c-2.3,21.2-13.4,36.1-32.8,44.3c-2.8,1.2-4.2,4.5-3,7.3c0.9,2.1,3,3.4,5.1,3.4c0.7,0,1.5-0.1,2.2-0.4c16.1-6.8,36.1-21.5,39.6-53.4   C484.9,226.1,489.5,174.9,455.6,154.1z"/><path d="M120.3,347.2c5.3,2.5,10.4,5.7,15,9.6c1.9,1.5,3.8,3,5.7,4.2v83.8h-14.2c-3.1,0-5.6,2.5-5.6,5.6c0,3.1,2.5,5.6,5.6,5.6   h19.8h38.4h17.5c3.1,0,5.6-2.5,5.6-5.6c0-3.1-2.5-5.6-5.6-5.6h-12v-98.5c8.7-12.3,19.9-22.4,27.8-28.7   c12.4-9.9,19.5-24.8,19.5-40.8v-5.3h3.7c3.1,0,5.6-2.5,5.6-5.6s-2.5-5.6-5.6-5.6h-9.3h-21.1c-3.1,0-5.6,2.5-5.6,5.6V276   c0,5.9-3.5,11.1-8.9,13.3c-1.9,0.8-3.9,1.5-6.1,2.3v-25.7c0-3.1-2.5-5.6-5.6-5.6h-38.4h-16.4c-3.1,0-5.6,2.5-5.6,5.6   s2.5,5.6,5.6,5.6h10.8v75.7c-5-3.9-10.3-7.3-15.9-10c-2.8-1.3-6.1-0.1-7.4,2.6C116.4,342.5,117.6,345.8,120.3,347.2z M181.7,303.5   c1.4,1.1,3.2,1.4,4.9,0.9c5.3-1.5,10.1-3.2,14.3-4.9c9.6-3.9,15.8-13.2,15.8-23.6v-4.6h10v5.3c0,12.6-5.6,24.3-15.3,32.1   c-8.8,7.1-21.3,18.4-31,32.5c-0.6,0.9-1,2-1,3.1v100.3h-27.3V271.4h27.3v27.7C179.5,300.8,180.3,302.5,181.7,303.5z"/><path d="M142.3,69c28-4,94.3-6.6,106.6,55.4c0.5,2.7,2.9,4.5,5.5,4.5c0.4,0,0.7,0,1.1-0.1c3-0.6,5-3.5,4.4-6.6   c-6.1-30.7-25-51.8-54.8-60.9c-24.4-7.5-50.8-5.4-64.4-3.4c-3,0.4-5.2,3.3-4.7,6.3C136.4,67.3,139.3,69.4,142.3,69z"/><path d="M109.8,78.1c0.7,0,1.4-0.1,2.1-0.4c0.8-0.3,1.6-0.7,2.4-1c2.9-1.1,4.3-4.4,3.1-7.2c-1.1-2.9-4.4-4.3-7.2-3.1   c-0.9,0.3-1.8,0.7-2.6,1.1c-2.8,1.2-4.2,4.4-3,7.3C105.5,76.8,107.6,78.1,109.8,78.1z"/><path d="M44.2,271.6c5.9,7,12.3,11.5,17,14.3c-4.4,5.8-9,15.4-5.6,28.5c5.5,20.8,22.2,26.1,32,26.1c0.8,0,1.6,0,2.3-0.1   c3.1-0.3,5.3-3,5-6.1c-0.3-3.1-3-5.3-6.1-5c-0.7,0.1-17.4,1.4-22.5-17.8c-3.7-14.2,7-22.4,7.4-22.8c1.7-1.2,2.5-3.2,2.2-5.3   c-0.3-2-1.7-3.8-3.6-4.5c-1.7-0.6-42-16.1-32.9-74.6c0.1-0.6,0.1-1.2,0-1.7c-0.1-0.7-9.8-68.1,43.3-108.6c2.4-1.9,2.9-5.4,1-7.8   c-1.9-2.4-5.4-2.9-7.8-1c-55.6,42.5-48.8,109.4-47.6,118.3C23.2,238.3,34.1,259.8,44.2,271.6z"/><path d="M108.7,271.4h2c3.1,0,5.6-2.5,5.6-5.6s-2.5-5.6-5.6-5.6h-2c-3.1,0-5.6,2.5-5.6,5.6S105.7,271.4,108.7,271.4z"/><path d="M100,455.9h4.6c3.1,0,5.6-2.5,5.6-5.6c0-3.1-2.5-5.6-5.6-5.6H100c-3.1,0-5.6,2.5-5.6,5.6C94.4,453.4,96.9,455.9,100,455.9z   "/><path d="M256.8,143c-6.9-0.4-13.5,0.1-19.6,1.5c-3,0.7-4.9,3.7-4.2,6.7c0.7,3,3.7,4.9,6.7,4.2c5.1-1.2,10.6-1.6,16.5-1.3   c0.1,0,0.2,0,0.2,0c0.1,0,10.4,0.2,21.9,6.2c15.4,8.1,25.1,22.3,28.8,42.3c3.2,17.6,0.3,35.1-8.3,49.4   c-5.4,8.9-11.7,14.7-18.9,17.3c-2.8,1-4.3,4-3.4,6.8c0,0.1,3.7,12.4,2.7,25.9c-1.2,17-9,27.8-23.1,32.1c-4.6,1.4-9.6,1.8-15.1,1.1   c-7.4-0.9-21.7-1.3-34.5,6.4c-2.6,1.6-3.5,5-1.9,7.6c1,1.7,2.9,2.7,4.8,2.7c1,0,2-0.3,2.9-0.8c10-6,21.5-5.7,27.4-4.9   c7,0.9,13.6,0.4,19.7-1.5c33.2-10.1,34-45.9,29.1-67.1c7.6-4,14.3-10.7,19.9-19.9c10-16.6,13.5-36.9,9.8-57.2   C308,146.2,260.5,143.1,256.8,143z"/><path d="M364.2,299.9c-0.1,0-0.2,0-0.2,0c-17.4,0-33.7-4-48.3-12c-2.7-1.5-6.1-0.5-7.6,2.2c-1.5,2.7-0.5,6.1,2.2,7.6   c16.3,8.9,34.3,13.4,53.5,13.4c0.2,0,0.7,0,1.3,0c2,0,6.1-0.1,11.2-0.9v134.5h-21V327.6c0-3.1-2.5-5.6-5.6-5.6   c-3.1,0-5.6,2.5-5.6,5.6v117.1H293v-53.1v-2.2c0-8.2,3.6-16.1,9.8-21.5l4.6-4c8.7-7.5,13.7-18.4,13.7-29.9v-2.4   c0-3.1-2.5-5.6-5.6-5.6c-3.1,0-5.6,2.5-5.6,5.6v2.4c0,8.2-3.6,16.1-9.8,21.5l-4.6,4c-0.9,0.8-1.7,1.6-2.5,2.4v-10.7   c0-3.1-2.5-5.6-5.6-5.6c-3.1,0-5.6,2.5-5.6,5.6v38.2v2.2v7.3c-0.4-0.4-0.8-0.7-1.2-1l-17.3-13.4c-5.1-4-8.1-10-8.1-16.6V367   c0-3.1-2.5-5.6-5.6-5.6c-3.1,0-5.6,2.5-5.6,5.6v0.9c0,10,4.5,19.2,12.4,25.4l17.3,13.4c5.1,4,8.1,10,8.1,16.6v21.5h-20.2   c-3.1,0-5.6,2.5-5.6,5.6c0,3.1,2.5,5.6,5.6,5.6h88.3H382h35.6c3.1,0,5.6-2.5,5.6-5.6c0-3.1-2.5-5.6-5.6-5.6h-30v-73.6   c0-8.3,3.9-16.2,10.6-21.1l10.2-7.7c7.2-5.4,11.5-14,11.5-23v-7.8c0-3.1-2.5-5.6-5.6-5.6c-3.1,0-5.6,2.5-5.6,5.6v7.8   c0,5.5-2.6,10.8-7,14.1l-10.2,7.7c-1.4,1-2.7,2.2-3.9,3.4v-36.7c11.1-3.2,24.1-9.5,34.1-21.7c13.5-16.5,9-35.1,8.8-35.9   c-0.7-3-3.8-4.8-6.8-4c-3,0.7-4.8,3.8-4,6.8c0,0.1,3.3,13.9-6.6,26.1C395.2,300.9,364.5,300,364.2,299.9z"/><path d="M443.4,455.9c3.1,0,5.6-2.5,5.6-5.6c0-3.1-2.5-5.6-5.6-5.6h-3.5c-3.1,0-5.6,2.5-5.6,5.6c0,3.1,2.5,5.6,5.6,5.6H443.4z"/></g><text x="0" y="527" fill="#000000" font-size="5px" font-weight="bold" font-family="'Helvetica Neue', Helvetica, Arial-Unicode, Arial, Sans-serif">Created by maxicons</text><text x="0" y="532" fill="#000000" font-size="5px" font-weight="bold" font-family="'Helvetica Neue', Helvetica, Arial-Unicode, Arial, Sans-serif">from the Noun Project</text></svg>