<svg xmlns="http://www.w3.org/2000/svg" xmlns:xlink="http://www.w3.org/1999/xlink" version="1.1" x="0px" y="0px" viewBox="0 0 512 640" style="enable-background:new 0 0 512 512;" xml:space="preserve"><g><path d="M148.2,128h20.6c3.2,0,5.9-2.6,5.9-5.9c0-3.2-2.6-5.9-5.9-5.9h-20.6c-3.2,0-5.9,2.6-5.9,5.9C142.4,125.4,145,128,148.2,128   z"/><path d="M168,188.5l28.8-60.5h34.6c3.2,0,5.9-2.6,5.9-5.9c0-3.2-2.6-5.9-5.9-5.9H193c-0.1,0-0.3,0-0.4,0c-0.2,0-0.4,0-0.6,0.1   c-0.2,0-0.4,0.1-0.5,0.1c-0.2,0.1-0.4,0.1-0.5,0.2c-0.2,0.1-0.4,0.2-0.5,0.2c-0.2,0.1-0.3,0.2-0.5,0.3c-0.2,0.1-0.3,0.2-0.5,0.3   c-0.2,0.1-0.3,0.2-0.4,0.4c-0.1,0.1-0.3,0.3-0.4,0.4c-0.1,0.1-0.2,0.3-0.4,0.4c-0.1,0.2-0.2,0.4-0.3,0.6c-0.1,0.1-0.1,0.2-0.2,0.3   l-49.2,103.5c-10.5-4.2-21.6-6.3-33-6.3c-49.3,0-89.4,40.1-89.4,89.4c0,49.3,40.1,89.4,89.4,89.4c49.3,0,89.4-40.1,89.4-89.4   c0-25.1-10.6-49.1-29.1-66.1c-2.4-2.2-6.1-2-8.3,0.4c-2.2,2.4-2,6.1,0.4,8.3c16.1,14.7,25.3,35.6,25.3,57.4   c0,42.8-34.9,77.7-77.7,77.7c-42.8,0-77.7-34.9-77.7-77.7c0-42.8,34.9-77.7,77.7-77.7c9.7,0,19.1,1.8,28,5.2l-7.9,16.6c0,0,0,0,0,0   c0,0,0,0,0,0l-25.4,53.4c-1.4,2.9-0.1,6.4,2.8,7.8c0.8,0.4,1.7,0.6,2.5,0.6c2.2,0,4.3-1.2,5.3-3.3l22.7-47.8   c15.5,9.6,25.2,26.8,25.2,45.2c0,29.3-23.9,53.2-53.2,53.2c-29.3,0-53.2-23.9-53.2-53.2c0-29.4,23.9-53.2,53.2-53.2   c3.2,0,5.9-2.6,5.9-5.9c0-3.2-2.6-5.9-5.9-5.9c-35.8,0-65,29.1-65,65c0,35.8,29.1,64.9,65,64.9c35.8,0,64.9-29.1,64.9-64.9   c0-23-12.3-44.3-31.9-55.9l23.8-50.1l67.1,83.9c1.2,1.4,2.9,2.2,4.6,2.2c1.3,0,2.6-0.4,3.7-1.3c2.5-2,2.9-5.7,0.9-8.2L168,188.5z"/><path d="M406.5,216.8c-16.8,0-32.9,4.6-47,13.4l-40.8-57.3c-1.1-1.5-2.9-2.5-4.8-2.5H192.7c-3.2,0-5.9,2.6-5.9,5.9   c0,3.2,2.6,5.9,5.9,5.9h118.1l53.4,74.8c-7.6,6.6-13.6,14.7-17.6,24c-1.3,3,0.1,6.4,3.1,7.7c0.7,0.3,1.5,0.5,2.3,0.5   c2.3,0,4.5-1.3,5.4-3.6c3.1-7.3,7.7-13.7,13.6-19l24.1,33.8H329c1.1-15.3,6.7-29.7,16.2-41.9c2-2.6,1.5-6.2-1-8.2   c-2.6-2-6.2-1.5-8.2,1c-11.2,14.3-17.6,31.2-18.7,49.2h-53.6l44.8-98.2c1.3-2.9,0-6.4-2.9-7.8c-2.9-1.3-6.4,0-7.8,2.9l-48.6,106.5   c-0.8,1.8-0.7,3.9,0.4,5.6c1.1,1.7,2.9,2.7,4.9,2.7h87.2c3,33.1,30.8,59.1,64.7,59.1c35.8,0,65-29.1,65-64.9c0-35.8-29.1-65-65-65   c-3.5,0-6.9,0.3-10.3,0.8c-3.2,0.5-5.4,3.5-4.9,6.7c0.5,3.2,3.5,5.4,6.7,4.9c2.8-0.4,5.6-0.7,8.5-0.7c29.3,0,53.2,23.9,53.2,53.2   c0,29.3-23.9,53.2-53.2,53.2c-27.4,0-50-20.8-52.9-47.4h52.9c2.2,0,4.2-1.2,5.2-3.2c1-2,0.8-4.3-0.4-6.1l-45-63.1   c12.1-7.3,25.9-11.2,40.2-11.2c42.8,0,77.7,34.9,77.7,77.7c0,42.8-34.9,77.7-77.7,77.7c-34.3,0-65-23-74.6-55.9   c-0.9-3.1-4.2-4.9-7.3-4c-3.1,0.9-4.9,4.2-4,7.3c11,37.9,46.4,64.3,85.9,64.3c49.3,0,89.4-40.1,89.4-89.4   C495.9,256.9,455.8,216.8,406.5,216.8z"/><path d="M276.6,142.4c5.3,1.9,15.8,5.8,26.7,11.4c1.6,0.9,14.4,7.7,32.5,7.7c3.8,0,7.7-0.3,11.9-1c9.6-1.6,18.3-7.1,23.7-15   l0.3-0.4c3.8-5.6,4.2-12.9,1-18.9c-3.2-6.1-9.5-9.9-16.5-9.9h-75.1c-7.4,0-13.4,6-13.4,13.4C267.7,135.4,271.3,140.5,276.6,142.4z    M281.1,128h75.1c2.6,0,4.9,1.4,6.1,3.7c0.6,1.1,1.7,3.9-0.3,6.9l-0.2,0.3c-3.7,5.3-9.5,9-16,10.1c-20.8,3.5-36.6-5.3-36.7-5.4   c-0.1,0-0.2-0.1-0.3-0.1c-11.6-6-22.7-10.2-28.2-12.1c-0.7-0.2-1.1-0.9-1.1-1.6C279.4,128.8,280.2,128,281.1,128z"/></g><text x="0" y="527" fill="#000000" font-size="5px" font-weight="bold" font-family="'Helvetica Neue', Helvetica, Arial-Unicode, Arial, Sans-serif">Created by maxicons</text><text x="0" y="532" fill="#000000" font-size="5px" font-weight="bold" font-family="'Helvetica Neue', Helvetica, Arial-Unicode, Arial, Sans-serif">from the Noun Project</text></svg>