<svg xmlns="http://www.w3.org/2000/svg" data-name="Layer 43" viewBox="0 0 512 640" x="0px" y="0px"><title>mail_email_envelope_interface_communucation_sent_forward</title><path d="M43.53,475.45a7,7,0,0,0,4.95-2L169.12,352.76a6.54,6.54,0,0,0,.53-.65,6.95,6.95,0,0,0-9.76-9.76,6.54,6.54,0,0,0-.65.53L38.59,463.53a7,7,0,0,0,4.94,11.92Z"/><path d="M79.9,384a7,7,0,0,0,4.94-2l55.77-55.77a6,6,0,0,0,.51-.62,6.87,6.87,0,0,0,1.12-.91h0a7,7,0,0,0,0-9.88L118.53,291.1l114.71-17.88.77,100a7,7,0,0,0,7,6.94h.06a7,7,0,0,0,6.93-7l-.78-102L298.79,263a22,22,0,0,0,18.49-18.57L324.91,194l101.39.78h.06a7,7,0,0,0,.05-14L327,180,344.37,65.37l112.05,112a17.29,17.29,0,0,1,0,24.44L255.06,403.2a17.3,17.3,0,0,1-24.44,0l-31.08-31.08a4.46,4.46,0,0,0-.42-.34,6.91,6.91,0,0,0-10.89-1.32l-.11.12L155.49,403.2a7,7,0,1,0,9.88,9.88l27.69-27.68,27.68,27.68a31.29,31.29,0,0,0,44.2,0L466.3,211.73a31.26,31.26,0,0,0,0-44.2L344.48,45.7l-.16-.14-.14-.12a31.23,31.23,0,0,0-43.91.26L98.92,247.05a31.2,31.2,0,0,0-.45,43.71l0,.07c.14.14.26.29.4.43l28.45,28.45L75,372.12A7,7,0,0,0,79.9,384Zm223.56-141.7a8.14,8.14,0,0,1-6.82,6.85l-190,29.62a17.29,17.29,0,0,1,2.12-21.87L310.15,55.58A17.28,17.28,0,0,1,332,53.48Z"/><path d="M124.64,434.05,101,457.73a7,7,0,1,0,9.89,9.88l23.67-23.68a7,7,0,1,0-9.88-9.88Z"/><text x="0" y="527" fill="#000000" font-size="5px" font-weight="bold" font-family="'Helvetica Neue', Helvetica, Arial-Unicode, Arial, Sans-serif">Created by maxicons</text><text x="0" y="532" fill="#000000" font-size="5px" font-weight="bold" font-family="'Helvetica Neue', Helvetica, Arial-Unicode, Arial, Sans-serif">from the Noun Project</text></svg>