<svg xmlns="http://www.w3.org/2000/svg" xmlns:xlink="http://www.w3.org/1999/xlink" version="1.1" x="0px" y="0px" viewBox="0 0 512 640" style="enable-background:new 0 0 512 512;" xml:space="preserve"><g><path d="M370.2,451.6h9.3c17.5,0,31.7-14.2,31.7-31.7v-61c7.7-2.6,13.3-9.9,13.3-18.6v-8.1c0-29.7-24.2-53.9-53.9-53.9h-0.3v-34.2   c10.8-5.3,18.3-16.5,18.3-29.3v-82.6c0-18-14.7-32.7-32.7-32.7H337V47.1c0-9.7-7.9-17.6-17.6-17.6h-18c-9.5,0-17.3,7.6-17.6,17   h-36.7c-3.1,0-5.6,2.5-5.6,5.6c0,3.1,2.5,5.6,5.6,5.6h36.7v41.8h-55.5V47.1c0-9.7-7.9-17.6-17.6-17.6h-18c-9.5,0-17.3,7.6-17.6,17   h-57.5c-21.6,0-39.2,17.6-39.2,39.2V101c0,15,8.8,28.9,22.3,35.4c0.8,0.4,1.6,0.5,2.4,0.5c2.1,0,4.1-1.2,5-3.2   c1.3-2.8,0.2-6.1-2.6-7.4c-9.7-4.6-16-14.6-16-25.4V85.7c0-15.5,12.6-28.1,28.1-28.1H175v41.8h-18.9c-18,0-32.7,14.7-32.7,32.7   v82.6c0,12.9,7.5,24,18.3,29.3v34.2h-0.3c-29.7,0-53.9,24.2-53.9,53.9v8.1c0,8.6,5.6,15.9,13.3,18.6v61c0,17.5,14.2,31.7,31.7,31.7   h9.3c1,17.2,15.3,30.9,32.8,30.9h162.8C354.9,482.5,369.2,468.8,370.2,451.6z M370.6,289.5c23.5,0,42.7,19.2,42.7,42.7v8.1   c0,4.7-3.8,8.5-8.5,8.5h-16.5c-3.1,0-5.6,2.5-5.6,5.6s2.5,5.6,5.6,5.6H400v60c0,11.3-9.2,20.6-20.6,20.6h-9.2v-151H370.6z    M293.1,321.4c-3.8,0-7-3.1-7-7v-23.3c0-3.8,3.1-7,7-7h34.6c3.8,0,7,3.1,7,7v23.3c0,3.8-3.1,7-7,7H293.1z M184.3,321.4   c-3.8,0-7-3.1-7-7v-23.3c0-3.8,3.1-7,7-7h34.6c3.8,0,7,3.1,7,7v23.3c0,3.8-3.1,7-7,7H184.3z M134.6,214.8v-82.6   c0-11.9,9.7-21.5,21.5-21.5H175v18.3c0,3.1,2.5,5.6,5.6,5.6s5.6-2.5,5.6-5.6V47.1c0-3.6,2.9-6.5,6.5-6.5h18c3.6,0,6.5,2.9,6.5,6.5   v226h-30.9v-87c0-3.1-2.5-5.6-5.6-5.6s-5.6,2.5-5.6,5.6v50.2h-18.9C144.3,236.3,134.6,226.7,134.6,214.8z M112,419.9v-60h14.9   c3.1,0,5.6-2.5,5.6-5.6s-2.5-5.6-5.6-5.6h-19.7c-4.7,0-8.5-3.8-8.5-8.5v-8.1c0-23.5,19.2-42.7,42.7-42.7h0.3v151h-9.2   C121.3,440.5,112,431.2,112,419.9z M359.1,449.7c0,12-9.7,21.7-21.7,21.7H174.6c-12,0-21.7-9.7-21.7-21.7v-25.3   c0-16.3,13.3-29.5,29.5-29.5h19.1c3.1,0,5.6-2.5,5.6-5.6c0-3.1-2.5-5.6-5.6-5.6h-19.1c-11.6,0-22.1,4.9-29.5,12.8V247.3   c1.1,0.1,2.1,0.2,3.2,0.2H175v28.3c-5.3,3.2-8.8,8.9-8.8,15.5v23.3c0,6.6,3.5,12.3,8.8,15.5v14c0,14.7,11.9,26.6,26.6,26.6   c13.1,0,24-9.5,26.2-21.9c0.3-0.7,0.4-1.4,0.4-2.1v-2.6c0-3.1-2.5-5.6-5.6-5.6s-5.6,2.5-5.6,5.6c0,8.5-6.9,15.5-15.5,15.5   c-8.5,0-15.5-6.9-15.5-15.5v-11.3h32.8c10,0,18.1-8.1,18.1-18.1v-23.3c0-6.6-3.5-12.3-8.8-15.5V110.6h55.5V130   c0,3.1,2.5,5.6,5.6,5.6c3.1,0,5.6-2.5,5.6-5.6V47.1c0-3.6,2.9-6.5,6.5-6.5h18c3.6,0,6.5,2.9,6.5,6.5v226h-30.9v-84.3   c0-3.1-2.5-5.6-5.6-5.6c-3.1,0-5.6,2.5-5.6,5.6v47.5h-37.3c-3.1,0-5.6,2.5-5.6,5.6c0,3.1,2.5,5.6,5.6,5.6h37.3v28.3   c-5.3,3.2-8.8,8.9-8.8,15.5v23.3c0,6.6,3.5,12.3,8.8,15.5v14c0,14.7,11.9,26.6,26.6,26.6c13.4,0,24.6-10,26.4-22.9   c0.2-0.5,0.3-1.1,0.3-1.7v-2c0-3.1-2.5-5.6-5.6-5.6s-5.6,2.5-5.6,5.6c0,8.5-6.9,15.5-15.5,15.5c-8.5,0-15.5-6.9-15.5-15.5v-11.3   h32.8c10,0,18.1-8.1,18.1-18.1v-23.3c0-6.6-3.5-12.3-8.8-15.5V110.6h18.9c11.9,0,21.5,9.7,21.5,21.5v82.6   c0,11.9-9.7,21.5-21.5,21.5c-3.1,0-5.6,2.5-5.6,5.6c0,3.1,2.5,5.6,5.6,5.6c1.1,0,2.2-0.1,3.2-0.2v149.2   c-7.4-7.8-17.9-12.8-29.5-12.8h-98.1c-3.1,0-5.6,2.5-5.6,5.6c0,3.1,2.5,5.6,5.6,5.6h98.1c16.3,0,29.5,13.3,29.5,29.5V449.7z"/><path d="M433.7,85.7c0-21.6-17.6-39.2-39.2-39.2h-39.8c-3.1,0-5.6,2.5-5.6,5.6c0,3.1,2.5,5.6,5.6,5.6h39.8   c15.5,0,28.1,12.6,28.1,28.1V101c0,10.8-6.3,20.7-16,25.4c-2.8,1.3-3.9,4.7-2.6,7.4c1,2,3,3.2,5,3.2c0.8,0,1.6-0.2,2.4-0.5   c13.6-6.5,22.3-20.4,22.3-35.4V85.7z"/><path d="M180.6,167.7c3.1,0,5.6-2.5,5.6-5.6v-6.3c0-3.1-2.5-5.6-5.6-5.6s-5.6,2.5-5.6,5.6v6.3C175,165.2,177.5,167.7,180.6,167.7z"/><path d="M289.3,165.5c3.1,0,5.6-2.5,5.6-5.6v-4.3c0-3.1-2.5-5.6-5.6-5.6c-3.1,0-5.6,2.5-5.6,5.6v4.3   C283.8,163,286.3,165.5,289.3,165.5z"/></g><text x="0" y="527" fill="#000000" font-size="5px" font-weight="bold" font-family="'Helvetica Neue', Helvetica, Arial-Unicode, Arial, Sans-serif">Created by maxicons</text><text x="0" y="532" fill="#000000" font-size="5px" font-weight="bold" font-family="'Helvetica Neue', Helvetica, Arial-Unicode, Arial, Sans-serif">from the Noun Project</text></svg>