<svg xmlns="http://www.w3.org/2000/svg" data-name="Icon set name" viewBox="0 0 512 640" x="0px" y="0px"><title>emoticon_smart_phone_message </title><path d="M232.45,433.62a5.32,5.32,0,0,0,0,10.64h47.1a5.32,5.32,0,0,0,0-10.64Z"/><path d="M279.55,78.38a5.32,5.32,0,0,0,0-10.64h-47.1a5.32,5.32,0,1,0,0,10.64Z"/><path d="M374.32,38.37H137.68a29.58,29.58,0,0,0-29.55,29.55V444.08a29.58,29.58,0,0,0,29.55,29.55H374.32a29.58,29.58,0,0,0,29.55-29.55,5.32,5.32,0,1,0-10.63,0A18.93,18.93,0,0,1,374.32,463H137.68a18.93,18.93,0,0,1-18.92-18.91V67.92A18.93,18.93,0,0,1,137.68,49H374.32a18.93,18.93,0,0,1,18.92,18.91V410.68a5.32,5.32,0,0,0,10.63,0V67.92A29.58,29.58,0,0,0,374.32,38.37Z"/><path d="M368.42,410.68V101.32a5.32,5.32,0,0,0-10.64,0v304H154.22V106.64H328.09a5.32,5.32,0,1,0,0-10.63H148.9a5.32,5.32,0,0,0-5.32,5.31V410.68A5.32,5.32,0,0,0,148.9,416H363.1A5.32,5.32,0,0,0,368.42,410.68Z"/><path d="M329.86,208.74a5.32,5.32,0,1,0,10.63,0A26.5,26.5,0,0,0,314,182.27H207a26.5,26.5,0,0,0-26.46,26.47v94.39l-12,31.9a5.31,5.31,0,0,0,5,7.19H314a26.5,26.5,0,0,0,26.47-26.47V239.24a5.32,5.32,0,1,0-10.63,0v76.51A15.86,15.86,0,0,1,314,331.59H181.18L190.84,306a5.43,5.43,0,0,0,.34-1.87V208.74A15.85,15.85,0,0,1,207,192.91H314A15.85,15.85,0,0,1,329.86,208.74Z"/><path d="M278.31,210.51a54.74,54.74,0,1,0,19.43,11.64,5.32,5.32,0,1,0-7.24,7.79,43.8,43.8,0,1,1-15.64-9.38,5.31,5.31,0,0,0,3.45-10.05Z"/><path d="M230.74,261.42v5a29.8,29.8,0,1,0,59.6,0v-5a5.31,5.31,0,0,0-5.31-5.31h-49A5.32,5.32,0,0,0,230.74,261.42Zm49,5.32a19.17,19.17,0,0,1-38.33,0Z"/><path d="M253.74,243.65v-1.33a5.32,5.32,0,1,0-10.63,0v1.33a5.32,5.32,0,1,0,10.63,0Z"/><path d="M278,243.65v-1.33a5.32,5.32,0,1,0-10.63,0v1.33a5.32,5.32,0,1,0,10.63,0Z"/><text x="0" y="527" fill="#000000" font-size="5px" font-weight="bold" font-family="'Helvetica Neue', Helvetica, Arial-Unicode, Arial, Sans-serif">Created by maxicons</text><text x="0" y="532" fill="#000000" font-size="5px" font-weight="bold" font-family="'Helvetica Neue', Helvetica, Arial-Unicode, Arial, Sans-serif">from the Noun Project</text></svg>