<svg xmlns="http://www.w3.org/2000/svg" xmlns:xlink="http://www.w3.org/1999/xlink" version="1.1" x="0px" y="0px" viewBox="0 0 512 640" style="enable-background:new 0 0 512 512;" xml:space="preserve"><g><path d="M359,472.1c23.4,0,42.5-19.1,42.5-42.5V315.5c0-3.1-2.5-5.6-5.6-5.6c-3.1,0-5.6,2.5-5.6,5.6v114.2   c0,17.3-14.1,31.3-31.3,31.3h-46V312.4c0-32-26.1-58.1-58.1-58.1h-54.4c-9.2,0-16.7-7.5-16.7-16.7v-84.2c0-3.1-2.5-5.6-5.6-5.6   c-3.1,0-5.6,2.5-5.6,5.6v84.2c0,15.4,12.5,27.9,27.9,27.9h54.4c25.9,0,46.9,21.1,46.9,46.9V461H70.4c-17.3,0-31.3-14.1-31.3-31.3   V158.1c0-17.3,14.1-31.3,31.3-31.3h15.4c3.1,0,5.6-2.5,5.6-5.6c0-3.1-2.5-5.6-5.6-5.6H70.4c-23.4,0-42.5,19.1-42.5,42.5v271.5   c0,23.4,19.1,42.5,42.5,42.5H359z"/><path d="M272.3,126.8c3.1,0,5.6-2.5,5.6-5.6c0-3.1-2.5-5.6-5.6-5.6H123.8c-0.1,0-0.1,0-0.2,0c-0.1,0-0.1,0-0.2,0   c-3.1,0-5.6,2.5-5.6,5.6v141c0,32,26.1,58.1,58.1,58.1h54.4c9.2,0,16.7,7.5,16.7,16.7v99.1c0,3.1,2.5,5.6,5.6,5.6   c3.1,0,5.6-2.5,5.6-5.6v-99.1c0-15.4-12.5-27.9-27.9-27.9h-54.4c-25.9,0-46.9-21.1-46.9-46.9V126.8H272.3z"/><path d="M323.2,88.3c0.9,0.6,2,0.9,3,0.9c1.8,0,3.6-0.9,4.7-2.6c0.8-1.2,1.6-2.4,2.5-3.6c1.8-2.5,1.2-6-1.3-7.8   c-2.5-1.8-6-1.2-7.8,1.2c-1,1.3-1.9,2.7-2.8,4.1C319.9,83.2,320.6,86.6,323.2,88.3z"/><path d="M395.9,39.9c-0.1,0-0.2,0-0.4,0c-19.3,0.1-37.5,6.2-52.9,17.8c-2.5,1.9-2.9,5.4-1.1,7.8c1.9,2.5,5.4,2.9,7.8,1.1   c13.4-10.1,29.3-15.5,46.2-15.6c0.1,0,0.2,0,0.3,0c20.8,0,40.3,8.4,54.9,23.5c15,15.6,23,36.9,22.1,58.6   c-2.4,55.2-42.8,108.3-66.6,135c-2.7,3-6.3,4.6-10.3,4.6c-4,0-7.7-1.7-10.4-4.7c-24.9-27.9-66.7-83.2-66.7-140   c0-6.7,0.9-13.4,2.6-19.9c0.8-3-1-6-4-6.8c-3-0.8-6,1-6.8,4c-2,7.4-3,15-3,22.7c0,60.5,43.6,118.3,69.5,147.4   c4.8,5.3,11.6,8.4,18.7,8.4c7.1,0,13.9-3,18.6-8.3c24.8-27.8,66.9-83.3,69.5-141.9c1.1-24.7-8.1-49-25.2-66.8   C442.1,49.4,419.8,39.9,395.9,39.9z"/><path d="M395.9,164.6c-20.8,0-37.7-16.9-37.7-37.7c0-3.1-2.5-5.6-5.6-5.6s-5.6,2.5-5.6,5.6c0,27,21.9,48.9,48.9,48.9   c27,0,48.9-21.9,48.9-48.9S422.8,78,395.9,78c-13.5,0-26.5,5.7-35.7,15.5c-2.1,2.2-2,5.8,0.3,7.9c2.3,2.1,5.8,2,7.9-0.3   c7.2-7.7,17-12,27.6-12c20.8,0,37.7,16.9,37.7,37.7C433.6,147.7,416.7,164.6,395.9,164.6z"/><path d="M194.4,441.7c3.1,0,5.6-2.5,5.6-5.6v-48.4c0-15.5-12.6-28.2-28.2-28.2H66.3c-3.1,0-5.6,2.5-5.6,5.6c0,3.1,2.5,5.6,5.6,5.6   h105.5c9.4,0,17,7.6,17,17v48.4C188.9,439.2,191.4,441.7,194.4,441.7z"/></g><text x="0" y="527" fill="#000000" font-size="5px" font-weight="bold" font-family="'Helvetica Neue', Helvetica, Arial-Unicode, Arial, Sans-serif">Created by maxicons</text><text x="0" y="532" fill="#000000" font-size="5px" font-weight="bold" font-family="'Helvetica Neue', Helvetica, Arial-Unicode, Arial, Sans-serif">from the Noun Project</text></svg>