<svg xmlns="http://www.w3.org/2000/svg" xmlns:xlink="http://www.w3.org/1999/xlink" version="1.1" x="0px" y="0px" viewBox="0 0 512 640" style="enable-background:new 0 0 512 512;" xml:space="preserve"><g><path d="M58.6,485.1c0.3,0,0.6,0,0.8,0l5.4-0.2c7.5-0.2,14.5-3.4,19.7-8.8c5.1-5.5,7.8-12.6,7.6-20c-0.3-10.4-0.5-20.8-0.4-30.9   c0-3.1-2.5-5.6-5.5-5.6c0,0,0,0,0,0c-3.1,0-5.6,2.5-5.6,5.5c-0.1,10.3,0.1,20.8,0.4,31.3c0.1,4.5-1.5,8.8-4.6,12   c-3.1,3.3-7.3,5.2-11.9,5.3l-5.4,0.2c-4.7,0.1-9.2-1.6-12.5-5c-3.3-3.3-5.1-7.8-4.9-12.5C44,387.2,64,152.2,225.5,38.6   c1.2-0.8,2.9-0.6,3.8,0.6c0.9,1.2,0.7,2.8-0.5,3.8C203.4,63.3,118.1,143,89.8,313.7c-0.5,3,1.5,5.9,4.6,6.4c3,0.5,5.9-1.5,6.4-4.6   c27.7-166.8,110.4-244.1,135-263.9c5.9-4.7,6.9-13.1,2.4-19.1c-4.5-6.1-12.9-7.4-19.1-3c-70.8,49.8-123,126.8-155.3,228.8   c-26,82.1-32,159.2-33.3,197.9c-0.3,7.8,2.6,15.2,8.2,20.7C44.1,482.2,51.1,485.1,58.6,485.1z"/><path d="M435.6,387.8c0.3,3.1,2.9,5.3,6,5.1c6.8-0.6,13.7,0.4,20.4,2.8c-23.4,11.4-40.6,33.2-45.9,59.1c-0.1,0.6-0.2,1.1-0.3,1.6   c-12.6-18.7-7.4-36.3-7.1-37.1c0.6-1.9,0.2-3.9-1.1-5.4c-1.3-1.5-3.2-2.2-5.1-1.9c-15.7,2.6-29.8-0.3-38.9-3.1   c-12.6-4-22.8-12.1-28.8-23c-4.8-8.6-6.7-18.5-5.7-29.6c0.9-9.9,7.9-18.4,17.4-21.2c9.2-2.7,18.3-2.9,27.2-0.6   c12,3.1,22.4,11,29.4,22.2c5,8.1,11.3,21,12.7,36.9c0.3,3.1,3,5.3,6,5.1c3.1-0.3,5.3-3,5.1-6c-1.6-18-8.7-32.7-14.3-41.8   c-8.5-13.6-21.3-23.3-36-27.1c-10.8-2.8-22-2.6-33.1,0.7c-13.9,4.1-24.1,16.5-25.4,30.9c-1.2,13.3,1.2,25.4,7.1,36   c7.4,13.3,19.9,23.3,35.2,28.2c8.7,2.8,21.6,5.5,36.3,4.4c-1.1,10.9,0.2,31.1,19.4,49.7c1.1,1,2.5,1.6,3.9,1.6   c0.7,0,1.4-0.1,2.1-0.4c2.1-0.8,3.4-2.8,3.4-5.1c0-0.1,0.1-5.2,1.7-12.8c5.2-25.5,23.8-46.6,48.3-54.8c1.2-0.4,2-0.6,2-0.6   c2.1-0.6,3.7-2.4,4-4.6c0.3-2.2-0.7-4.4-2.6-5.5c-12.2-7.5-25-10.7-38.1-9.7C437.6,382.1,435.4,384.8,435.6,387.8z"/><path d="M431.9,108.8c-0.2,1.4-0.4,2.8-0.6,4.1c-4.5,27.5-20.5,52.8-43.9,69.4c-21.2,15.1-44.4,25.1-68.8,29.9   c-38.4,7.4-55.3,33.4-58.4,55.3c-3.5,24.7,8.7,48,31.1,59.5c0.8,0.4,1.7,0.6,2.5,0.6c2,0,4-1.1,5-3c1.4-2.7,0.3-6.1-2.4-7.5   c-18.1-9.2-27.9-28.1-25.1-48c2.6-18.1,16.9-39.6,49.5-45.9c26-5,50.6-15.7,73.1-31.7c25.8-18.4,43.5-46.3,48.5-76.7   c0.3-1.6,0.5-3.1,0.7-4.6c0.4-3.1-1.8-5.8-4.9-6.2C435,103.5,432.2,105.7,431.9,108.8z"/><path d="M428.8,77.5c0.9,2.2,3,3.5,5.2,3.5c0.7,0,1.4-0.1,2-0.4c2.9-1.1,4.3-4.4,3.2-7.2c-0.7-1.7-1.4-3.4-2.3-5.1   c-1.4-2.7-4.7-3.8-7.5-2.5c-2.7,1.4-3.8,4.7-2.5,7.5C427.7,74.7,428.3,76.1,428.8,77.5z"/><path d="M221.4,87c1.1,1.2,2.6,1.8,4.1,1.8c1.4,0,2.7-0.5,3.8-1.5c41.6-39.1,91.1-54,147.1-44.3c10.9,1.9,20.3,4.8,28,8.8   c2.7,1.4,6.1,0.3,7.5-2.4s0.3-6.1-2.4-7.5c-8.7-4.5-19.2-7.8-31.2-9.8c-59.6-10.3-112.3,5.6-156.6,47.2   C219.4,81.2,219.3,84.7,221.4,87z"/><path d="M150.9,208.6c2.3,0,4.5-1.5,5.3-3.8c11.2-33.3,29.5-66.6,52.9-96.4l0.6,0.5c1,0.8,2.3,1.3,3.5,1.3c1.6,0,3.2-0.7,4.3-2   c1.9-2.4,1.6-5.9-0.8-7.8l-5.7-4.7c-2.4-1.9-5.9-1.6-7.8,0.8c-0.7,0.9-1.1,2-1.2,3.1c-24.9,31.4-44.4,66.5-56.3,101.8   c-1,2.9,0.6,6.1,3.5,7.1C149.7,208.5,150.3,208.6,150.9,208.6z"/><path d="M147.9,231.6l0.6-2.1c0.8-3-0.9-6-3.8-6.9c-3-0.8-6,0.9-6.9,3.8l-0.6,2.1c-0.8,3,0.9,6,3.9,6.9c0.5,0.1,1,0.2,1.5,0.2   C145,235.7,147.2,234.1,147.9,231.6z"/><path d="M137.5,249.3c-3-0.7-6,1.1-6.7,4.1c-8.7,36.7-13.1,69.3-15.1,88.9c-5.1-2.7-10.9-4.3-17-4.3c-19.9,0-36.1,16.2-36.1,36.1   s16.2,36.1,36.1,36.1c5,0,9.9-1,14.5-3c2.8-1.2,4.1-4.5,2.9-7.3c-1.2-2.8-4.5-4.1-7.3-2.9c-3.2,1.4-6.5,2.1-10,2.1   c-13.7,0-24.9-11.2-24.9-24.9c0-13.7,11.2-24.9,24.9-24.9s24.9,11.2,24.9,24.9c0,2.3-0.3,4.5-0.9,6.6l-21.4-11.5   c-2.7-1.5-6.1-0.4-7.5,2.3c-1.5,2.7-0.4,6.1,2.3,7.5l34.6,18.6c0.8,0.5,1.7,0.7,2.6,0.7c2,0,3.9-1.1,4.9-2.9   c1.5-2.7,0.4-6.1-2.3-7.5l-3.2-1.7c1.3-3.8,2.1-7.9,2.1-12c0-8.9-3.3-17.1-8.7-23.4c1.7-17.8,5.9-53.6,15.6-94.7   C142.3,253,140.5,250,137.5,249.3z"/><path d="M343.4,351.2c-2,2.4-1.7,5.9,0.7,7.8l1.7,1.4c1,0.9,2.3,1.3,3.6,1.3c1.6,0,3.2-0.7,4.3-2c2-2.4,1.7-5.9-0.7-7.8l-1.7-1.4   C348.9,348.5,345.4,348.9,343.4,351.2z"/></g><text x="0" y="527" fill="#000000" font-size="5px" font-weight="bold" font-family="'Helvetica Neue', Helvetica, Arial-Unicode, Arial, Sans-serif">Created by maxicons</text><text x="0" y="532" fill="#000000" font-size="5px" font-weight="bold" font-family="'Helvetica Neue', Helvetica, Arial-Unicode, Arial, Sans-serif">from the Noun Project</text></svg>